<?xml version="1.0" encoding="utf-8"?>
<!-- Generator: Adobe Illustrator 16.0.0, SVG Export Plug-In . SVG Version: 6.00 Build 0)  -->
<!DOCTYPE svg PUBLIC "-//W3C//DTD SVG 1.1//EN" "http://www.w3.org/Graphics/SVG/1.1/DTD/svg11.dtd">
<svg version="1.1" id="Layer_1" xmlns="http://www.w3.org/2000/svg" xmlns:xlink="http://www.w3.org/1999/xlink" x="0px" y="0px"
	 width="200px" height="200px" viewBox="0 0 200 200" enable-background="new 0 0 200 200" xml:space="preserve">
<path fill-rule="evenodd" clip-rule="evenodd" fill="#FFFFFF" d="M173.32,90.596c-1.137-8.45-3.511-16.74-5.523-25.06
	c-0.295-1.218-1.26-2.521-2.289-3.272c-4.468-3.257-9.594-4.518-15.091-4.69c-4.585-0.144-6.62,3.527-7.215,6.491
	c-0.549,2.743,2.783,9.057,2.783,9.057s9.343-2.249,14.035-3.692c-1.111,8.78-2.08,16.435-3.161,24.969
	c-5.254-3.974-10.146-4.823-15.468-2.949c-0.644,0.227-1.867-0.146-2.351-0.673c-4.584-5.014-10.344-4.87-16.215-3.631
	c-4.065,0.858-6.444-0.551-7.899-4.712c7.267-3.859,7.775-10.945,7.936-17.871c0.185-8.105-3.457-14.746-11.666-17.033
	c-3.67-1.023-7.495-1.642-11.292-2.031c-7.722-0.791-8.137-0.164-9.996,7.597c-0.862,3.602-2.242,7.244-4.2,10.355
	c-1.13,1.796-2.535,2.751-0.89,4.909c0.57,0.748,0.948,2.19,0.619,2.989c-2.309,5.598-1.29,9.233,5.31,10.136
	c0.503,0.07,1.218,1.049,1.221,1.609c0.003,0.548-0.803,1.586-1.213,1.566c-1.735-0.085-4.311,0.137-5.04-0.869
	c-4.502-6.208-11.003-6.594-17.68-6.926c-1.378-0.068-3.551-0.341-3.956-1.19c-2.794-5.853-7.218-7.886-14.375-5.842
	c2.57-7.328,4.798-13.683,7.48-21.328c4.067,3.534,9.727,8.451,9.727,8.451s4.901-4.052,6.112-6.769
	c1.876-4.207-0.262-7.595-4.24-9.886c-5.055-2.909-11.261-3.307-14.225-0.604c-5.545,5.058-11.402,9.84-16.449,15.359
	c-4.273,4.672-7.784,10.096-11.184,15.471c-0.834,1.319-0.657,4.32,0.314,5.574c6.984,9.024,11.247,18.227,23.435,21.362
	c3.703,0.953,6.5,2.736,9.004,3.34c2.234,8.72,3.431,17.03,6.843,24.124c3.388,7.046,6.787,13.89,6.286,21.253
	c-0.248,3.654-1.035,7.272-1.547,10.911c-0.462,3.289,0.359,5.099,4.317,5.028c11.656-0.207,23.32-0.188,34.978-0.007
	c3.689,0.056,4.81-1.376,4.819-4.859c0.01-3.976,0.407-7.968,0.917-11.916c0.201-1.557,0.743-3.491,1.837-4.444
	c8.095-7.068,14.566-15.118,16.618-26.332c6.086,4.226,12.261,6.063,19.07,3.828c4.51-1.48,9.14-2.857,13.279-5.089
	c2.259-1.218,4.685-3.911,5.155-6.307C173.3,101.643,174.039,95.941,173.32,90.596z M115.173,118.258l-22.733,12.987
	c-3.41,1.969-6.439,0.358-6.439-3.58V101.69c0-3.938,3.035-5.549,6.446-3.58l22.617,12.988
	C118.474,113.066,118.584,116.289,115.173,118.258z"/>
</svg>
