<?xml version="1.0" encoding="utf-8"?>
<!-- Generator: Adobe Illustrator 16.0.0, SVG Export Plug-In . SVG Version: 6.00 Build 0)  -->
<!DOCTYPE svg PUBLIC "-//W3C//DTD SVG 1.1//EN" "http://www.w3.org/Graphics/SVG/1.1/DTD/svg11.dtd">
<svg version="1.1" id="Layer_1" xmlns="http://www.w3.org/2000/svg" xmlns:xlink="http://www.w3.org/1999/xlink" x="0px" y="0px"
	 width="200px" height="200px" viewBox="0 0 200 200" enable-background="new 0 0 200 200" xml:space="preserve">
<path fill="#4D394B" d="M198.626,89.352c-1.53-11.367-4.723-22.519-7.431-33.71c-0.398-1.638-1.695-3.39-3.078-4.402
	c-6.011-4.381-12.904-6.077-20.301-6.308c-6.168-0.192-8.904,4.745-9.704,8.731c-0.739,3.69,0.64,10.219,3.743,12.183
	c3.104,1.965,16.705-7.624,18.88-4.967c2.174,2.657-2.798,22.107-4.252,33.587c-7.068-5.346-13.649-6.488-20.808-3.967
	c-0.865,0.306-2.511-0.196-3.161-0.906c-6.167-6.745-13.914-6.552-21.81-4.884c-5.469,1.154-8.669-0.742-10.627-6.338
	c9.774-5.191,10.459-14.723,10.675-24.04c0.246-10.903-4.65-19.835-15.692-22.913c-4.936-1.376-10.082-2.209-15.189-2.73
	c-10.387-1.063-10.946-0.22-13.446,10.218c-1.159,4.844-3.015,9.746-5.65,13.93c-1.521,2.415-3.41,3.7-1.197,6.602
	c0.767,1.006,1.276,2.947,0.832,4.021c-3.105,7.53-1.734,12.42,7.143,13.634c0.676,0.094,1.638,1.412,1.641,2.165
	c0.004,0.738-1.08,2.134-1.631,2.106c-2.333-0.114-5.798,0.184-6.779-1.169c-6.056-8.349-14.801-8.869-23.783-9.316
	c-1.854-0.091-4.776-0.457-5.321-1.6c-3.758-7.873-9.708-10.608-19.335-7.858c3.457-9.857,7.385-28.509,10.062-28.688
	c2.676-0.179,9.815,11.161,13.083,11.367s6.593-5.45,8.222-9.104c2.523-5.66-0.352-10.217-5.703-13.298
	c-6.799-3.913-15.146-4.448-19.135-0.812c-7.458,6.805-15.336,13.239-22.126,20.662C11.001,47.83,6.277,55.126,1.706,62.357
	c-1.123,1.775-0.884,5.812,0.421,7.498C11.522,81.993,17.256,94.372,33.65,98.59c4.98,1.282,8.744,3.682,12.113,4.494
	c3.005,11.729,4.615,22.905,9.205,32.447c4.557,9.478,9.129,18.684,8.456,28.588c-0.333,4.916-1.392,9.784-2.08,14.677
	c-0.623,4.425,0.484,6.857,5.807,6.764c15.679-0.277,31.368-0.252,47.049-0.01c4.963,0.075,6.47-1.849,6.483-6.534
	c0.014-5.348,0.548-10.72,1.232-16.029c0.271-2.094,1-4.695,2.473-5.979c10.888-9.509,19.593-20.335,22.354-35.421
	c8.187,5.684,16.491,8.156,25.651,5.149c6.065-1.991,12.294-3.843,17.863-6.845c3.037-1.639,6.301-5.26,6.934-8.483
	C198.598,104.212,199.592,96.542,198.626,89.352z"/>
</svg>
